STARTFONT 2.1
COMMENT  
COMMENT  2002 - Iconian Fonts: www.iconian.com
COMMENT  
COMMENT  WARNING:  This bdf file was generated from a font server using
COMMENT  fstobdf.  The resulting font is subject to the same copyright,
COMMENT  license, and trademark restrictions as the original font.  The
COMMENT  authors and distributors of fstobdf disclaim all liability for
COMMENT  misuse of the program or its output.
COMMENT  
FONT -bitstream-radio space-medium-r-normal--22-212-75-75-p-132-iso8859-1
SIZE 21 75 75
FONTBOUNDINGBOX 26 26 -2 -6
STARTPROPERTIES 37
FONT "-bitstream-radio space-medium-r-normal--22-212-75-75-p-132-iso8859-1"
FOUNDRY "bitstream"
FAMILY_NAME "radio space"
WEIGHT_NAME "medium"
SLANT "r"
SETWIDTH_NAME "normal"
ADD_STYLE_NAME ""
PIXEL_SIZE 22
POINT_SIZE 212
RESOLUTION_X 75
RESOLUTION_Y 75
SPACING "p"
AVERAGE_WIDTH 132
CHARSET_REGISTRY "iso8859"
CHARSET_ENCODING "1"
RAW_PIXEL_SIZE 1000
RAW_POINT_SIZE 964
RAW_AVERAGE_WIDTH 13042
FONT_ASCENT 20
RAW_ASCENT 903
FONT_DESCENT 6
RAW_DESCENT 270
COPYRIGHT "2002 - Iconian Fonts: www.iconian.com"
FACE_NAME "Radio Space"
_ADOBE_POSTSCRIPT_FONTNAME "RadioSpace"
SUBSCRIPT_SIZE 13
SUBSCRIPT_X 0
SUBSCRIPT_Y -3
SUPERSCRIPT_SIZE 13
SUPERSCRIPT_X 0
SUPERSCRIPT_Y 5
UNDERLINE_THICKNESS 2
UNDERLINE_POSITION 2
ITALIC_ANGLE 5760
FONT_TYPE "TrueType"
RASTERIZER_NAME "FreeType"
DEFAULT_CHAR 0
ENDPROPERTIES
CHARS 191
STARTCHAR space
ENCODING 32
SWIDTH 365 0
DWIDTH 8 0
BBX 0 0 0 0
ATTRIBUTES 1f40
BITMAP
ENDCHAR
STARTCHAR exclam
ENCODING 33
SWIDTH 228 0
DWIDTH 5 0
BBX 2 14 2 0
ATTRIBUTES 1388
BITMAP
c0
c0
c0
c0
c0
c0
c0
c0
00
00
00
00
c0
c0
ENDCHAR
STARTCHAR quotedbl
ENCODING 34
SWIDTH 411 0
DWIDTH 9 0
BBX 6 5 2 9
ATTRIBUTES 2328
BITMAP
cc
cc
44
44
00
ENDCHAR
STARTCHAR numbersign
ENCODING 35
SWIDTH 777 0
DWIDTH 17 0
BBX 14 14 2 0
ATTRIBUTES 4268
BITMAP
18c0
18c0
18c0
18c0
fffc
fffc
00c0
00c0
fffc
fffc
18c0
18c0
18c0
18c0
ENDCHAR
STARTCHAR dollar
ENCODING 36
SWIDTH 685 0
DWIDTH 15 0
BBX 12 14 2 0
ATTRIBUTES 3a98
BITMAP
7ff0
fff0
c600
c600
c600
c600
ffe0
7ff0
0630
0630
0630
0630
fff0
ffe0
ENDCHAR
STARTCHAR percent
ENCODING 37
SWIDTH 914 0
DWIDTH 20 0
BBX 17 14 2 0
ATTRIBUTES 4e20
BITMAP
fc0e00
840c00
841800
843000
847000
846000
84df80
fd9080
019080
031080
061080
0e1080
0c1f80
181f80
ENDCHAR
STARTCHAR ampersand
ENCODING 38
SWIDTH 685 0
DWIDTH 15 0
BBX 12 14 2 0
ATTRIBUTES 3a98
BITMAP
0600
0600
0600
0600
0600
0600
fff0
fff0
fff0
0630
0630
0630
07f0
07f0
ENDCHAR
STARTCHAR apostrophe
ENCODING 39
SWIDTH 228 0
DWIDTH 5 0
BBX 2 5 2 9
ATTRIBUTES 1388
BITMAP
c0
c0
40
40
00
ENDCHAR
STARTCHAR parenleft
ENCODING 40
SWIDTH 411 0
DWIDTH 9 0
BBX 6 14 2 0
ATTRIBUTES 2328
BITMAP
7c
fc
c0
c0
c0
c0
c0
c0
c0
c0
c0
c0
fc
7c
ENDCHAR
STARTCHAR parenright
ENCODING 41
SWIDTH 411 0
DWIDTH 9 0
BBX 6 14 2 0
ATTRIBUTES 2328
BITMAP
f8
fc
0c
0c
0c
0c
0c
0c
0c
0c
0c
0c
fc
f8
ENDCHAR
STARTCHAR asterisk
ENCODING 42
SWIDTH 502 0
DWIDTH 11 0
BBX 8 8 2 6
ATTRIBUTES 2af8
BITMAP
18
10
92
f7
18
38
6c
66
ENDCHAR
STARTCHAR plus
ENCODING 43
SWIDTH 502 0
DWIDTH 11 0
BBX 8 8 2 3
ATTRIBUTES 2af8
BITMAP
18
18
18
ff
ff
18
18
18
ENDCHAR
STARTCHAR comma
ENCODING 44
SWIDTH 228 0
DWIDTH 5 0
BBX 2 5 2 -3
ATTRIBUTES 1388
BITMAP
c0
c0
40
40
00
ENDCHAR
STARTCHAR minus
ENCODING 45
SWIDTH 502 0
DWIDTH 11 0
BBX 8 2 2 6
ATTRIBUTES 2af8
BITMAP
ff
ff
ENDCHAR
STARTCHAR period
ENCODING 46
SWIDTH 228 0
DWIDTH 5 0
BBX 2 2 2 0
ATTRIBUTES 1388
BITMAP
c0
c0
ENDCHAR
STARTCHAR slash
ENCODING 47
SWIDTH 685 0
DWIDTH 15 0
BBX 12 14 2 0
ATTRIBUTES 3a98
BITMAP
0070
0060
00c0
0180
0380
0300
0600
0e00
0c00
1800
3000
3000
6000
c000
ENDCHAR
STARTCHAR 0
ENCODING 48
SWIDTH 685 0
DWIDTH 15 0
BBX 12 14 2 0
ATTRIBUTES 3a98
BITMAP
7fe0
fff0
c030
c030
c030
c030
c030
c030
c030
c030
c030
c030
fff0
7fe0
ENDCHAR
STARTCHAR 1
ENCODING 49
SWIDTH 228 0
DWIDTH 5 0
BBX 2 14 2 0
ATTRIBUTES 1388
BITMAP
c0
c0
c0
c0
c0
c0
c0
c0
c0
c0
c0
c0
c0
c0
ENDCHAR
STARTCHAR 2
ENCODING 50
SWIDTH 685 0
DWIDTH 15 0
BBX 12 14 2 0
ATTRIBUTES 3a98
BITMAP
ffe0
fff0
0030
0030
0030
0030
7ff0
ffe0
c000
c000
c000
c000
fff0
fff0
ENDCHAR
STARTCHAR 3
ENCODING 51
SWIDTH 685 0
DWIDTH 15 0
BBX 12 14 2 0
ATTRIBUTES 3a98
BITMAP
ffe0
fff0
0030
0030
0030
0030
fff0
fff0
0030
0030
0030
0030
fff0
ffe0
ENDCHAR
STARTCHAR 4
ENCODING 52
SWIDTH 685 0
DWIDTH 15 0
BBX 12 14 2 0
ATTRIBUTES 3a98
BITMAP
c030
c030
c030
c030
c030
c030
fff0
7ff0
0030
0030
0030
0030
0030
0030
ENDCHAR
STARTCHAR 5
ENCODING 53
SWIDTH 685 0
DWIDTH 15 0
BBX 12 14 2 0
ATTRIBUTES 3a98
BITMAP
fff0
fff0
c000
c000
c000
c000
ffe0
7ff0
0030
0030
0030
0030
fff0
ffe0
ENDCHAR
STARTCHAR 6
ENCODING 54
SWIDTH 685 0
DWIDTH 15 0
BBX 12 14 2 0
ATTRIBUTES 3a98
BITMAP
7ff0
fff0
c000
c000
c000
c000
ffe0
fff0
c030
c030
c030
c030
fff0
7fe0
ENDCHAR
STARTCHAR 7
ENCODING 55
SWIDTH 685 0
DWIDTH 15 0
BBX 12 14 2 0
ATTRIBUTES 3a98
BITMAP
ffe0
fff0
0030
0030
0030
0030
0030
0030
0030
0030
0030
0030
0030
0030
ENDCHAR
STARTCHAR 8
ENCODING 56
SWIDTH 685 0
DWIDTH 15 0
BBX 12 14 2 0
ATTRIBUTES 3a98
BITMAP
7fe0
fff0
c030
c030
c030
c030
fff0
fff0
c030
c030
c030
c030
fff0
7fe0
ENDCHAR
STARTCHAR 9
ENCODING 57
SWIDTH 685 0
DWIDTH 15 0
BBX 12 14 2 0
ATTRIBUTES 3a98
BITMAP
7fe0
fff0
c030
c030
c030
c030
fff0
7ff0
0030
0030
0030
0030
fff0
ffe0
ENDCHAR
STARTCHAR colon
ENCODING 58
SWIDTH 228 0
DWIDTH 5 0
BBX 2 6 2 0
ATTRIBUTES 1388
BITMAP
c0
c0
00
00
c0
c0
ENDCHAR
STARTCHAR semicolon
ENCODING 59
SWIDTH 228 0
DWIDTH 5 0
BBX 2 9 2 -3
ATTRIBUTES 1388
BITMAP
c0
c0
00
00
c0
c0
40
40
00
ENDCHAR
STARTCHAR less
ENCODING 60
SWIDTH 411 0
DWIDTH 9 0
BBX 6 14 2 0
ATTRIBUTES 2328
BITMAP
7c
fc
c0
c0
c0
c0
c0
c0
c0
c0
c0
c0
fc
7c
ENDCHAR
STARTCHAR equal
ENCODING 61
SWIDTH 502 0
DWIDTH 11 0
BBX 8 6 2 4
ATTRIBUTES 2af8
BITMAP
ff
ff
00
00
ff
ff
ENDCHAR
STARTCHAR greater
ENCODING 62
SWIDTH 411 0
DWIDTH 9 0
BBX 6 14 2 0
ATTRIBUTES 2328
BITMAP
f8
fc
0c
0c
0c
0c
0c
0c
0c
0c
0c
0c
fc
f8
ENDCHAR
STARTCHAR question
ENCODING 63
SWIDTH 685 0
DWIDTH 15 0
BBX 12 14 2 0
ATTRIBUTES 3a98
BITMAP
ffe0
fff0
0030
0030
0030
0030
7ff0
ffe0
c000
c000
0000
0000
c000
c000
ENDCHAR
STARTCHAR at
ENCODING 64
SWIDTH 777 0
DWIDTH 17 0
BBX 14 12 2 1
ATTRIBUTES 4268
BITMAP
7ff8
fffc
c00c
dfec
d06c
d06c
d06c
df6c
c00c
c00c
fffc
7ff8
ENDCHAR
STARTCHAR A
ENCODING 65
SWIDTH 685 0
DWIDTH 15 0
BBX 12 14 2 0
ATTRIBUTES 3a98
BITMAP
7fe0
fff0
0030
0030
0030
0030
fff0
fff0
c030
c030
c030
c030
c030
c030
ENDCHAR
STARTCHAR B
ENCODING 66
SWIDTH 685 0
DWIDTH 15 0
BBX 12 14 2 0
ATTRIBUTES 3a98
BITMAP
ffe0
fff0
0030
0030
0030
0030
fff0
fff0
c030
c030
c030
c030
fff0
ffe0
ENDCHAR
STARTCHAR C
ENCODING 67
SWIDTH 685 0
DWIDTH 15 0
BBX 12 14 2 0
ATTRIBUTES 3a98
BITMAP
7ff0
fff0
c000
c000
c000
c000
c000
c000
c000
c000
c000
c000
fff0
7ff0
ENDCHAR
STARTCHAR D
ENCODING 68
SWIDTH 685 0
DWIDTH 15 0
BBX 12 14 2 0
ATTRIBUTES 3a98
BITMAP
ffe0
fff0
c030
c030
c030
c030
c030
c030
c030
c030
c030
c030
dff0
dfe0
ENDCHAR
STARTCHAR E
ENCODING 69
SWIDTH 685 0
DWIDTH 15 0
BBX 12 14 2 0
ATTRIBUTES 3a98
BITMAP
7ff0
fff0
c000
c000
c000
c000
fff0
fff0
c000
c000
c000
c000
fff0
7ff0
ENDCHAR
STARTCHAR F
ENCODING 70
SWIDTH 685 0
DWIDTH 15 0
BBX 12 14 2 0
ATTRIBUTES 3a98
BITMAP
7ff0
fff0
c000
c000
c000
c000
fff0
fff0
c000
c000
c000
c000
c000
c000
ENDCHAR
STARTCHAR G
ENCODING 71
SWIDTH 685 0
DWIDTH 15 0
BBX 12 14 2 0
ATTRIBUTES 3a98
BITMAP
7ff0
fff0
c000
c000
c000
c000
c000
c030
c030
c030
c030
c030
fff0
7fe0
ENDCHAR
STARTCHAR H
ENCODING 72
SWIDTH 685 0
DWIDTH 15 0
BBX 12 14 2 0
ATTRIBUTES 3a98
BITMAP
c030
c030
c030
c030
c030
c030
fff0
fff0
c030
c030
c030
c030
c030
c030
ENDCHAR
STARTCHAR I
ENCODING 73
SWIDTH 228 0
DWIDTH 5 0
BBX 2 14 2 0
ATTRIBUTES 1388
BITMAP
c0
c0
c0
c0
c0
c0
c0
c0
c0
c0
c0
c0
c0
c0
ENDCHAR
STARTCHAR J
ENCODING 74
SWIDTH 685 0
DWIDTH 15 0
BBX 12 14 2 0
ATTRIBUTES 3a98
BITMAP
0030
0030
0030
0030
0030
0030
0030
0030
0030
0030
0030
0030
fff0
ffe0
ENDCHAR
STARTCHAR K
ENCODING 75
SWIDTH 685 0
DWIDTH 15 0
BBX 12 14 2 0
ATTRIBUTES 3a98
BITMAP
c1f0
c3f0
c300
c300
c300
c300
ffe0
fff0
c030
c030
c030
c030
c030
c030
ENDCHAR
STARTCHAR L
ENCODING 76
SWIDTH 685 0
DWIDTH 15 0
BBX 12 14 2 0
ATTRIBUTES 3a98
BITMAP
c000
c000
c000
c000
c000
c000
c000
c000
c000
c000
c000
c000
fff0
7ff0
ENDCHAR
STARTCHAR M
ENCODING 77
SWIDTH 731 0
DWIDTH 16 0
BBX 13 14 2 0
ATTRIBUTES 3e80
BITMAP
7ff0
fff8
c018
c318
c318
c318
c318
c318
c318
c318
c318
c318
c318
c318
ENDCHAR
STARTCHAR N
ENCODING 78
SWIDTH 685 0
DWIDTH 15 0
BBX 12 14 2 0
ATTRIBUTES 3a98
BITMAP
7fe0
fff0
c030
c030
c030
c030
c030
c030
c030
c030
c030
c030
c030
c030
ENDCHAR
STARTCHAR O
ENCODING 79
SWIDTH 685 0
DWIDTH 15 0
BBX 12 14 2 0
ATTRIBUTES 3a98
BITMAP
7fe0
fff0
c030
c030
c030
c030
c030
c030
c030
c030
c030
c030
fff0
7fe0
ENDCHAR
STARTCHAR P
ENCODING 80
SWIDTH 685 0
DWIDTH 15 0
BBX 12 14 2 0
ATTRIBUTES 3a98
BITMAP
ffe0
fff0
0030
0030
0030
0030
fff0
ffe0
c000
c000
c000
c000
c000
c000
ENDCHAR
STARTCHAR Q
ENCODING 81
SWIDTH 685 0
DWIDTH 15 0
BBX 12 14 2 0
ATTRIBUTES 3a98
BITMAP
7fe0
fff0
c030
c030
c030
c030
c030
c630
c630
c630
c630
c630
c7f0
43e0
ENDCHAR
STARTCHAR R
ENCODING 82
SWIDTH 685 0
DWIDTH 15 0
BBX 12 14 2 0
ATTRIBUTES 3a98
BITMAP
ffe0
fff0
0030
0030
0030
0030
fff0
ffe0
c300
c300
c300
c300
c3f0
c1f0
ENDCHAR
STARTCHAR S
ENCODING 83
SWIDTH 685 0
DWIDTH 15 0
BBX 12 14 2 0
ATTRIBUTES 3a98
BITMAP
7ff0
fff0
c000
c000
c000
c000
ffe0
7ff0
0030
0030
0030
0030
fff0
ffe0
ENDCHAR
STARTCHAR T
ENCODING 84
SWIDTH 685 0
DWIDTH 15 0
BBX 12 14 2 0
ATTRIBUTES 3a98
BITMAP
fff0
fff0
0000
0600
0600
0600
0600
0600
0600
0600
0600
0600
0600
0600
ENDCHAR
STARTCHAR U
ENCODING 85
SWIDTH 685 0
DWIDTH 15 0
BBX 12 14 2 0
ATTRIBUTES 3a98
BITMAP
c030
c030
c030
c030
c030
c030
c030
c030
c030
c030
c030
c030
fff0
7fe0
ENDCHAR
STARTCHAR V
ENCODING 86
SWIDTH 685 0
DWIDTH 15 0
BBX 12 14 2 0
ATTRIBUTES 3a98
BITMAP
c030
c030
c030
c030
6070
6060
70e0
30c0
39c0
1980
1980
0f00
0f00
0600
ENDCHAR
STARTCHAR W
ENCODING 87
SWIDTH 731 0
DWIDTH 16 0
BBX 13 14 2 0
ATTRIBUTES 3e80
BITMAP
c318
c318
c318
c318
c318
c318
c318
c318
c318
c318
c318
c018
fff8
7ff0
ENDCHAR
STARTCHAR X
ENCODING 88
SWIDTH 777 0
DWIDTH 17 0
BBX 14 14 2 0
ATTRIBUTES 4268
BITMAP
f87c
fcfc
0cc0
0cc0
0cc0
0cc0
0cc0
0cc0
0cc0
0cc0
0cc0
0cc0
fcfc
f87c
ENDCHAR
STARTCHAR Y
ENCODING 89
SWIDTH 685 0
DWIDTH 15 0
BBX 12 14 2 0
ATTRIBUTES 3a98
BITMAP
c030
c030
c030
c030
c030
c030
fff0
7ff0
0030
0030
0030
0030
fff0
ffe0
ENDCHAR
STARTCHAR Z
ENCODING 90
SWIDTH 685 0
DWIDTH 15 0
BBX 12 14 2 0
ATTRIBUTES 3a98
BITMAP
fff0
fff0
0070
00e0
01c0
0380
0700
0e00
1c00
3800
7800
f000
fff0
fff0
ENDCHAR
STARTCHAR bracketleft
ENCODING 91
SWIDTH 411 0
DWIDTH 9 0
BBX 6 14 2 0
ATTRIBUTES 2328
BITMAP
7c
fc
c0
c0
c0
c0
c0
c0
c0
c0
c0
c0
fc
7c
ENDCHAR
STARTCHAR backslash
ENCODING 92
SWIDTH 685 0
DWIDTH 15 0
BBX 12 14 2 0
ATTRIBUTES 3a98
BITMAP
c000
6000
3000
3800
1800
0c00
0e00
0600
0300
0180
0180
00c0
0060
0070
ENDCHAR
STARTCHAR bracketright
ENCODING 93
SWIDTH 411 0
DWIDTH 9 0
BBX 6 14 2 0
ATTRIBUTES 2328
BITMAP
f8
fc
0c
0c
0c
0c
0c
0c
0c
0c
0c
0c
fc
f8
ENDCHAR
STARTCHAR asciicircum
ENCODING 94
SWIDTH 411 0
DWIDTH 9 0
BBX 0 0 0 0
ATTRIBUTES 2328
BITMAP
ENDCHAR
STARTCHAR underscore
ENCODING 95
SWIDTH 594 0
DWIDTH 13 0
BBX 13 2 0 -3
ATTRIBUTES 32c8
BITMAP
fff8
fff8
ENDCHAR
STARTCHAR grave
ENCODING 96
SWIDTH 274 0
DWIDTH 6 0
BBX 3 5 2 9
ATTRIBUTES 1770
BITMAP
c0
e0
60
20
00
ENDCHAR
STARTCHAR a
ENCODING 97
SWIDTH 685 0
DWIDTH 15 0
BBX 12 8 2 0
ATTRIBUTES 3a98
BITMAP
7ff0
fff0
c030
c030
c030
c030
fe30
7e30
ENDCHAR
STARTCHAR b
ENCODING 98
SWIDTH 685 0
DWIDTH 15 0
BBX 12 14 2 0
ATTRIBUTES 3a98
BITMAP
c000
c000
c000
c000
c000
c000
ffe0
fff0
0030
0030
0030
0030
fff0
ffe0
ENDCHAR
STARTCHAR c
ENCODING 99
SWIDTH 685 0
DWIDTH 15 0
BBX 12 8 2 0
ATTRIBUTES 3a98
BITMAP
7ff0
fff0
c000
c000
c000
c000
fff0
7ff0
ENDCHAR
STARTCHAR d
ENCODING 100
SWIDTH 685 0
DWIDTH 15 0
BBX 12 14 2 0
ATTRIBUTES 3a98
BITMAP
0030
0030
0030
0030
0030
0030
7ff0
fff0
c000
c000
c000
c000
fff0
7ff0
ENDCHAR
STARTCHAR e
ENCODING 101
SWIDTH 685 0
DWIDTH 15 0
BBX 12 8 2 0
ATTRIBUTES 3a98
BITMAP
7fe0
fff0
c0e0
c3c0
cf00
c000
fff0
7ff0
ENDCHAR
STARTCHAR f
ENCODING 102
SWIDTH 685 0
DWIDTH 15 0
BBX 12 14 2 -6
ATTRIBUTES 3a98
BITMAP
7ff0
fff0
0000
0000
0000
0000
fff0
fff0
c000
c000
c000
c000
c000
c000
ENDCHAR
STARTCHAR g
ENCODING 103
SWIDTH 685 0
DWIDTH 15 0
BBX 12 14 2 -6
ATTRIBUTES 3a98
BITMAP
7ff0
fff0
c000
c000
c000
c000
fff0
7ff0
0030
0030
0030
0030
0030
0030
ENDCHAR
STARTCHAR h
ENCODING 104
SWIDTH 685 0
DWIDTH 15 0
BBX 12 14 2 0
ATTRIBUTES 3a98
BITMAP
c000
c000
c000
c000
c000
c000
ffe0
fff0
c030
c030
c030
c030
c030
c030
ENDCHAR
STARTCHAR i
ENCODING 105
SWIDTH 228 0
DWIDTH 5 0
BBX 2 14 2 0
ATTRIBUTES 1388
BITMAP
c0
c0
00
00
00
00
c0
c0
c0
c0
c0
c0
c0
c0
ENDCHAR
STARTCHAR j
ENCODING 106
SWIDTH 228 0
DWIDTH 5 0
BBX 6 20 -2 -6
ATTRIBUTES 1388
BITMAP
0c
0c
00
00
00
00
0c
0c
0c
0c
0c
0c
0c
0c
0c
0c
0c
0c
fc
f8
ENDCHAR
STARTCHAR k
ENCODING 107
SWIDTH 685 0
DWIDTH 15 0
BBX 12 14 2 0
ATTRIBUTES 3a98
BITMAP
c000
c000
c300
c300
c300
c300
ffe0
fff0
c030
c030
c030
c030
c030
c030
ENDCHAR
STARTCHAR l
ENCODING 108
SWIDTH 228 0
DWIDTH 5 0
BBX 2 14 2 0
ATTRIBUTES 1388
BITMAP
c0
c0
c0
c0
c0
c0
c0
c0
c0
c0
c0
c0
c0
c0
ENDCHAR
STARTCHAR m
ENCODING 109
SWIDTH 731 0
DWIDTH 16 0
BBX 13 8 2 0
ATTRIBUTES 3e80
BITMAP
7ff0
fff8
c018
c318
c318
c318
c318
c318
ENDCHAR
STARTCHAR n
ENCODING 110
SWIDTH 685 0
DWIDTH 15 0
BBX 12 8 2 0
ATTRIBUTES 3a98
BITMAP
7fe0
fff0
c030
c030
c030
c030
c030
c030
ENDCHAR
STARTCHAR o
ENCODING 111
SWIDTH 685 0
DWIDTH 15 0
BBX 12 8 2 0
ATTRIBUTES 3a98
BITMAP
7fe0
fff0
c030
c030
c030
c030
fff0
7fe0
ENDCHAR
STARTCHAR p
ENCODING 112
SWIDTH 685 0
DWIDTH 15 0
BBX 12 14 2 -6
ATTRIBUTES 3a98
BITMAP
ffe0
fff0
0030
0030
0030
0030
fff0
ffe0
c000
c000
c000
c000
c000
c000
ENDCHAR
STARTCHAR q
ENCODING 113
SWIDTH 685 0
DWIDTH 15 0
BBX 14 14 2 -6
ATTRIBUTES 3a98
BITMAP
7ff0
fff0
c000
c000
c000
c000
fff0
7ff0
0030
0030
0030
0030
003c
003c
ENDCHAR
STARTCHAR r
ENCODING 114
SWIDTH 685 0
DWIDTH 15 0
BBX 12 8 2 0
ATTRIBUTES 3a98
BITMAP
7ff0
fff0
c000
c000
c000
c000
c000
c000
ENDCHAR
STARTCHAR s
ENCODING 115
SWIDTH 685 0
DWIDTH 15 0
BBX 12 8 2 0
ATTRIBUTES 3a98
BITMAP
7ff0
fff0
7800
1e00
0780
01e0
fff0
ffe0
ENDCHAR
STARTCHAR t
ENCODING 116
SWIDTH 685 0
DWIDTH 15 0
BBX 12 14 2 0
ATTRIBUTES 3a98
BITMAP
c000
c000
c000
c000
c000
c000
fff0
fff0
c000
c000
c000
c000
fff0
7ff0
ENDCHAR
STARTCHAR u
ENCODING 117
SWIDTH 685 0
DWIDTH 15 0
BBX 12 8 2 0
ATTRIBUTES 3a98
BITMAP
c030
c030
c030
c030
c030
c030
fff0
7fe0
ENDCHAR
STARTCHAR v
ENCODING 118
SWIDTH 685 0
DWIDTH 15 0
BBX 12 8 2 0
ATTRIBUTES 3a98
BITMAP
c030
c030
c030
e070
70e0
3fc0
0f00
0600
ENDCHAR
STARTCHAR w
ENCODING 119
SWIDTH 731 0
DWIDTH 16 0
BBX 13 8 2 0
ATTRIBUTES 3e80
BITMAP
c318
c318
c318
c318
c318
c018
fff8
7ff0
ENDCHAR
STARTCHAR x
ENCODING 120
SWIDTH 685 0
DWIDTH 15 0
BBX 12 8 2 0
ATTRIBUTES 3a98
BITMAP
e070
e070
78e0
1e00
0780
71e0
e070
e070
ENDCHAR
STARTCHAR y
ENCODING 121
SWIDTH 685 0
DWIDTH 15 0
BBX 12 14 2 -6
ATTRIBUTES 3a98
BITMAP
c030
c030
c030
c030
c030
c030
fff0
7ff0
0030
0030
0030
0030
0030
0030
ENDCHAR
STARTCHAR z
ENCODING 122
SWIDTH 685 0
DWIDTH 15 0
BBX 12 8 2 0
ATTRIBUTES 3a98
BITMAP
fff0
fff0
01e0
0780
1e00
7800
fff0
fff0
ENDCHAR
STARTCHAR braceleft
ENCODING 123
SWIDTH 411 0
DWIDTH 9 0
BBX 6 14 2 0
ATTRIBUTES 2328
BITMAP
7c
fc
c0
c0
c0
c0
c0
c0
c0
c0
c0
c0
fc
7c
ENDCHAR
STARTCHAR bar
ENCODING 124
SWIDTH 228 0
DWIDTH 5 0
BBX 2 14 2 0
ATTRIBUTES 1388
BITMAP
c0
c0
c0
c0
c0
c0
c0
c0
c0
c0
c0
c0
c0
c0
ENDCHAR
STARTCHAR braceright
ENCODING 125
SWIDTH 411 0
DWIDTH 9 0
BBX 6 14 2 0
ATTRIBUTES 2328
BITMAP
f8
fc
0c
0c
0c
0c
0c
0c
0c
0c
0c
0c
fc
f8
ENDCHAR
STARTCHAR asciitilde
ENCODING 126
SWIDTH 502 0
DWIDTH 11 0
BBX 8 4 2 4
ATTRIBUTES 2af8
BITMAP
03
7f
fe
c0
ENDCHAR
STARTCHAR nobreakspace
ENCODING 160
SWIDTH 777 0
DWIDTH 17 0
BBX 0 0 0 0
ATTRIBUTES 4268
BITMAP
ENDCHAR
STARTCHAR exclamdown
ENCODING 161
SWIDTH 228 0
DWIDTH 5 0
BBX 2 14 2 0
ATTRIBUTES 1388
BITMAP
c0
c0
00
00
00
00
c0
c0
c0
c0
c0
c0
c0
c0
ENDCHAR
STARTCHAR cent
ENCODING 162
SWIDTH 685 0
DWIDTH 15 0
BBX 12 14 2 0
ATTRIBUTES 3a98
BITMAP
0300
0300
0300
7ff0
fff0
c300
c300
c300
c300
fff0
7ff0
0300
0300
0300
ENDCHAR
STARTCHAR sterling
ENCODING 163
SWIDTH 594 0
DWIDTH 13 0
BBX 11 19 1 -4
ATTRIBUTES 32c8
BITMAP
ffe0
8020
8020
8020
8020
8020
8020
8020
8020
8020
8020
8020
8020
8020
8020
8020
8020
8020
ffe0
ENDCHAR
STARTCHAR currency
ENCODING 164
SWIDTH 731 0
DWIDTH 16 0
BBX 12 12 3 1
ATTRIBUTES 3e80
BITMAP
0000
c060
ffe0
7fc0
71c0
60c0
60c0
60c0
71c0
7fc0
ffe0
c060
ENDCHAR
STARTCHAR yen
ENCODING 165
SWIDTH 822 0
DWIDTH 18 0
BBX 15 14 2 0
ATTRIBUTES 4650
BITMAP
c030
c030
c030
c1fe
c1fe
c030
fff0
7ff0
0030
01fe
01fe
0030
fff0
ffe0
ENDCHAR
STARTCHAR brokenbar
ENCODING 166
SWIDTH 548 0
DWIDTH 12 0
BBX 2 19 5 -4
ATTRIBUTES 2ee0
BITMAP
c0
c0
c0
c0
c0
c0
c0
c0
00
00
00
c0
c0
c0
c0
c0
c0
c0
c0
ENDCHAR
STARTCHAR section
ENCODING 167
SWIDTH 685 0
DWIDTH 15 0
BBX 12 14 2 0
ATTRIBUTES 3a98
BITMAP
7ff0
fff0
c000
ffe0
fff0
c030
c030
c030
c030
fff0
7ff0
0030
fff0
ffe0
ENDCHAR
STARTCHAR diaeresis
ENCODING 168
SWIDTH 411 0
DWIDTH 9 0
BBX 5 2 2 15
ATTRIBUTES 2328
BITMAP
d8
d8
ENDCHAR
STARTCHAR copyright
ENCODING 169
SWIDTH 777 0
DWIDTH 17 0
BBX 14 12 2 1
ATTRIBUTES 4268
BITMAP
7ff8
fffc
c00c
c00c
cfcc
c80c
c80c
cfcc
c00c
c00c
fffc
7ff8
ENDCHAR
STARTCHAR ordfeminine
ENCODING 170
SWIDTH 411 0
DWIDTH 9 0
BBX 7 7 1 7
ATTRIBUTES 2328
BITMAP
fe
02
02
fe
82
82
82
ENDCHAR
STARTCHAR guillemotleft
ENCODING 171
SWIDTH 594 0
DWIDTH 13 0
BBX 9 6 2 2
ATTRIBUTES 32c8
BITMAP
3180
7380
e700
e700
7380
1000
ENDCHAR
STARTCHAR notsign
ENCODING 172
SWIDTH 502 0
DWIDTH 11 0
BBX 8 5 2 3
ATTRIBUTES 2af8
BITMAP
ff
ff
03
03
03
ENDCHAR
STARTCHAR hyphen
ENCODING 173
SWIDTH 502 0
DWIDTH 11 0
BBX 8 2 2 6
ATTRIBUTES 2af8
BITMAP
ff
ff
ENDCHAR
STARTCHAR registered
ENCODING 174
SWIDTH 777 0
DWIDTH 17 0
BBX 14 12 2 1
ATTRIBUTES 4268
BITMAP
7ff8
fffc
c00c
c00c
cfcc
c80c
c80c
c80c
c00c
c00c
fffc
7ff8
ENDCHAR
STARTCHAR macron
ENCODING 175
SWIDTH 548 0
DWIDTH 12 0
BBX 6 2 3 11
ATTRIBUTES 2ee0
BITMAP
fc
fc
ENDCHAR
STARTCHAR degree
ENCODING 176
SWIDTH 365 0
DWIDTH 8 0
BBX 6 7 1 7
ATTRIBUTES 1f40
BITMAP
fc
84
84
84
84
84
fc
ENDCHAR
STARTCHAR plusminus
ENCODING 177
SWIDTH 502 0
DWIDTH 11 0
BBX 8 11 2 0
ATTRIBUTES 2af8
BITMAP
18
18
18
ff
ff
18
18
18
00
ff
ff
ENDCHAR
STARTCHAR twosuperior
ENCODING 178
SWIDTH 411 0
DWIDTH 9 0
BBX 7 7 1 7
ATTRIBUTES 2328
BITMAP
fe
02
02
fe
80
80
fe
ENDCHAR
STARTCHAR threesuperior
ENCODING 179
SWIDTH 411 0
DWIDTH 9 0
BBX 6 7 2 7
ATTRIBUTES 2328
BITMAP
fc
04
04
fc
04
04
fc
ENDCHAR
STARTCHAR acute
ENCODING 180
SWIDTH 274 0
DWIDTH 6 0
BBX 3 4 2 10
ATTRIBUTES 1770
BITMAP
60
60
c0
80
ENDCHAR
STARTCHAR mu
ENCODING 181
SWIDTH 777 0
DWIDTH 17 0
BBX 14 11 2 -3
ATTRIBUTES 4268
BITMAP
c030
c030
c030
c030
c030
c030
fffc
fffc
c000
c000
c000
ENDCHAR
STARTCHAR paragraph
ENCODING 182
SWIDTH 731 0
DWIDTH 16 0
BBX 13 14 2 0
ATTRIBUTES 3e80
BITMAP
7ff0
fff8
fe18
fe18
fe18
fe18
fe18
3e18
0618
0618
0618
0618
0618
0618
ENDCHAR
STARTCHAR periodcentered
ENCODING 183
SWIDTH 228 0
DWIDTH 5 0
BBX 2 2 2 4
ATTRIBUTES 1388
BITMAP
c0
c0
ENDCHAR
STARTCHAR cedilla
ENCODING 184
SWIDTH 228 0
DWIDTH 5 0
BBX 2 4 2 -4
ATTRIBUTES 1388
BITMAP
80
40
c0
c0
ENDCHAR
STARTCHAR onesuperior
ENCODING 185
SWIDTH 137 0
DWIDTH 3 0
BBX 1 8 1 6
ATTRIBUTES 0bb8
BITMAP
80
80
80
80
80
80
80
80
ENDCHAR
STARTCHAR masculine
ENCODING 186
SWIDTH 365 0
DWIDTH 8 0
BBX 6 7 1 7
ATTRIBUTES 1f40
BITMAP
fc
84
84
84
84
84
fc
ENDCHAR
STARTCHAR guillemotright
ENCODING 187
SWIDTH 594 0
DWIDTH 13 0
BBX 9 6 2 2
ATTRIBUTES 32c8
BITMAP
8400
e700
7380
7380
c600
8400
ENDCHAR
STARTCHAR onequarter
ENCODING 188
SWIDTH 868 0
DWIDTH 19 0
BBX 15 14 2 0
ATTRIBUTES 4a38
BITMAP
0030
4060
40c0
40c0
4180
4300
4642
4642
4c42
187e
1802
3002
6002
e002
ENDCHAR
STARTCHAR onehalf
ENCODING 189
SWIDTH 822 0
DWIDTH 18 0
BBX 15 14 2 0
ATTRIBUTES 4650
BITMAP
0030
4060
40c0
41c0
4180
4300
467e
4602
4c02
187e
3840
3040
607e
c000
ENDCHAR
STARTCHAR threequarters
ENCODING 190
SWIDTH 960 0
DWIDTH 21 0
BBX 18 14 2 0
ATTRIBUTES 5208
BITMAP
fc0c00
041c00
043800
043000
fc6000
04e000
04d040
fd9040
039040
031fc0
060040
0e0040
0c0040
180040
ENDCHAR
STARTCHAR questiondown
ENCODING 191
SWIDTH 685 0
DWIDTH 15 0
BBX 12 14 2 0
ATTRIBUTES 3a98
BITMAP
0030
0030
0000
0000
0000
0030
7ff0
ffe0
c000
c000
c000
c000
fff0
7ff0
ENDCHAR
STARTCHAR Agrave
ENCODING 192
SWIDTH 685 0
DWIDTH 15 0
BBX 12 18 2 0
ATTRIBUTES 3a98
BITMAP
0e00
0e00
0200
0000
7fe0
fff0
0030
0030
0030
0030
fff0
fff0
c030
c030
c030
c030
c030
c030
ENDCHAR
STARTCHAR Aacute
ENCODING 193
SWIDTH 685 0
DWIDTH 15 0
BBX 12 18 2 0
ATTRIBUTES 3a98
BITMAP
0600
0600
0800
0000
7fe0
fff0
0030
0030
0030
0030
fff0
fff0
c030
c030
c030
c030
c030
c030
ENDCHAR
STARTCHAR Acircumflex
ENCODING 194
SWIDTH 685 0
DWIDTH 15 0
BBX 12 19 2 0
ATTRIBUTES 3a98
BITMAP
0600
0f00
0f80
0980
0000
7fe0
fff0
0030
0030
0030
0030
fff0
fff0
c030
c030
c030
c030
c030
c030
ENDCHAR
STARTCHAR Atilde
ENCODING 195
SWIDTH 685 0
DWIDTH 15 0
BBX 12 20 2 0
ATTRIBUTES 3a98
BITMAP
00c0
1fc0
3f80
3000
0000
0000
7fe0
fff0
0030
0030
0030
0030
fff0
fff0
c030
c030
c030
c030
c030
c030
ENDCHAR
STARTCHAR Adiaeresis
ENCODING 196
SWIDTH 685 0
DWIDTH 15 0
BBX 12 17 2 0
ATTRIBUTES 3a98
BITMAP
1980
1980
0000
7fe0
fff0
0030
0030
0030
0030
fff0
fff0
c030
c030
c030
c030
c030
c030
ENDCHAR
STARTCHAR Aring
ENCODING 197
SWIDTH 685 0
DWIDTH 15 0
BBX 12 19 2 0
ATTRIBUTES 3a98
BITMAP
0f00
0900
0900
0f00
0000
7fe0
fff0
0030
0030
0030
0030
fff0
fff0
c030
c030
c030
c030
c030
c030
ENDCHAR
STARTCHAR AE
ENCODING 198
SWIDTH 1142 0
DWIDTH 25 0
BBX 22 14 2 0
ATTRIBUTES 61a8
BITMAP
7ffffc
fffffc
003000
003000
003000
003000
fffffc
fffffc
c03000
c03000
c03000
c03000
c03ffc
c03ffc
ENDCHAR
STARTCHAR Ccedilla
ENCODING 199
SWIDTH 685 0
DWIDTH 15 0
BBX 12 18 2 -4
ATTRIBUTES 3a98
BITMAP
7ff0
fff0
c000
c000
c000
c000
c000
c000
c000
c000
c000
c000
fff0
7ff0
0200
0100
0300
0300
ENDCHAR
STARTCHAR Egrave
ENCODING 200
SWIDTH 685 0
DWIDTH 15 0
BBX 12 18 2 0
ATTRIBUTES 3a98
BITMAP
0600
0600
0100
0000
7ff0
fff0
c000
c000
c000
c000
fff0
fff0
c000
c000
c000
c000
fff0
7ff0
ENDCHAR
STARTCHAR Eacute
ENCODING 201
SWIDTH 685 0
DWIDTH 15 0
BBX 12 18 2 0
ATTRIBUTES 3a98
BITMAP
0300
0300
0400
0000
7ff0
fff0
c000
c000
c000
c000
fff0
fff0
c000
c000
c000
c000
fff0
7ff0
ENDCHAR
STARTCHAR Ecircumflex
ENCODING 202
SWIDTH 685 0
DWIDTH 15 0
BBX 12 19 2 0
ATTRIBUTES 3a98
BITMAP
0600
0f00
0f80
0980
0000
7ff0
fff0
c000
c000
c000
c000
fff0
fff0
c000
c000
c000
c000
fff0
7ff0
ENDCHAR
STARTCHAR Ediaeresis
ENCODING 203
SWIDTH 685 0
DWIDTH 15 0
BBX 12 17 2 0
ATTRIBUTES 3a98
BITMAP
1980
1980
0000
7ff0
fff0
c000
c000
c000
c000
fff0
fff0
c000
c000
c000
c000
fff0
7ff0
ENDCHAR
STARTCHAR Igrave
ENCODING 204
SWIDTH 228 0
DWIDTH 5 0
BBX 3 18 2 0
ATTRIBUTES 1388
BITMAP
c0
c0
20
00
c0
c0
c0
c0
c0
c0
c0
c0
c0
c0
c0
c0
c0
c0
ENDCHAR
STARTCHAR Iacute
ENCODING 205
SWIDTH 274 0
DWIDTH 6 0
BBX 3 18 2 0
ATTRIBUTES 1770
BITMAP
e0
e0
80
00
c0
c0
c0
c0
c0
c0
c0
c0
c0
c0
c0
c0
c0
c0
ENDCHAR
STARTCHAR Icircumflex
ENCODING 206
SWIDTH 228 0
DWIDTH 5 0
BBX 6 19 0 0
ATTRIBUTES 1388
BITMAP
30
38
7c
4c
00
30
30
30
30
30
30
30
30
30
30
30
30
30
30
ENDCHAR
STARTCHAR Idiaeresis
ENCODING 207
SWIDTH 228 0
DWIDTH 5 0
BBX 5 17 0 0
ATTRIBUTES 1388
BITMAP
d8
d8
00
30
30
30
30
30
30
30
30
30
30
30
30
30
30
ENDCHAR
STARTCHAR ETH
ENCODING 208
SWIDTH 822 0
DWIDTH 18 0
BBX 15 14 2 0
ATTRIBUTES 4650
BITMAP
1ffc
1ffe
1806
1806
1806
1806
ff06
ff06
1806
1806
1806
1806
1bfe
1bfc
ENDCHAR
STARTCHAR Ntilde
ENCODING 209
SWIDTH 685 0
DWIDTH 15 0
BBX 12 20 2 0
ATTRIBUTES 3a98
BITMAP
00c0
1fc0
3f80
3000
0000
0000
7fe0
fff0
c030
c030
c030
c030
c030
c030
c030
c030
c030
c030
c030
c030
ENDCHAR
STARTCHAR Ograve
ENCODING 210
SWIDTH 685 0
DWIDTH 15 0
BBX 12 18 2 0
ATTRIBUTES 3a98
BITMAP
0600
0600
0100
0000
7fe0
fff0
c030
c030
c030
c030
c030
c030
c030
c030
c030
c030
fff0
7fe0
ENDCHAR
STARTCHAR Oacute
ENCODING 211
SWIDTH 685 0
DWIDTH 15 0
BBX 12 18 2 0
ATTRIBUTES 3a98
BITMAP
0300
0700
0400
0000
7fe0
fff0
c030
c030
c030
c030
c030
c030
c030
c030
c030
c030
fff0
7fe0
ENDCHAR
STARTCHAR Ocircumflex
ENCODING 212
SWIDTH 685 0
DWIDTH 15 0
BBX 12 19 2 0
ATTRIBUTES 3a98
BITMAP
0600
0f00
1f80
0980
0000
7fe0
fff0
c030
c030
c030
c030
c030
c030
c030
c030
c030
c030
fff0
7fe0
ENDCHAR
STARTCHAR Otilde
ENCODING 213
SWIDTH 685 0
DWIDTH 15 0
BBX 12 20 2 0
ATTRIBUTES 3a98
BITMAP
00c0
1fc0
3f80
3000
0000
0000
7fe0
fff0
c030
c030
c030
c030
c030
c030
c030
c030
c030
c030
fff0
7fe0
ENDCHAR
STARTCHAR Odiaeresis
ENCODING 214
SWIDTH 685 0
DWIDTH 15 0
BBX 12 17 2 0
ATTRIBUTES 3a98
BITMAP
1980
1980
0000
7fe0
fff0
c030
c030
c030
c030
c030
c030
c030
c030
c030
c030
fff0
7fe0
ENDCHAR
STARTCHAR multiply
ENCODING 215
SWIDTH 685 0
DWIDTH 15 0
BBX 12 8 2 0
ATTRIBUTES 3a98
BITMAP
e070
e070
71e0
0780
1e00
78e0
e070
e070
ENDCHAR
STARTCHAR Ooblique
ENCODING 216
SWIDTH 685 0
DWIDTH 15 0
BBX 12 14 2 0
ATTRIBUTES 3a98
BITMAP
7ff0
fff0
c0f0
c1f0
c1b0
c330
c630
ce30
cc30
d830
f830
f030
fff0
ffe0
ENDCHAR
STARTCHAR Ugrave
ENCODING 217
SWIDTH 685 0
DWIDTH 15 0
BBX 12 18 2 0
ATTRIBUTES 3a98
BITMAP
0600
0600
0100
0000
c030
c030
c030
c030
c030
c030
c030
c030
c030
c030
c030
c030
fff0
7fe0
ENDCHAR
STARTCHAR Uacute
ENCODING 218
SWIDTH 685 0
DWIDTH 15 0
BBX 12 18 2 0
ATTRIBUTES 3a98
BITMAP
0700
0700
0400
0000
c030
c030
c030
c030
c030
c030
c030
c030
c030
c030
c030
c030
fff0
7fe0
ENDCHAR
STARTCHAR Ucircumflex
ENCODING 219
SWIDTH 685 0
DWIDTH 15 0
BBX 12 19 2 0
ATTRIBUTES 3a98
BITMAP
0600
0f00
1f00
1900
0000
c030
c030
c030
c030
c030
c030
c030
c030
c030
c030
c030
c030
fff0
7fe0
ENDCHAR
STARTCHAR Udiaeresis
ENCODING 220
SWIDTH 685 0
DWIDTH 15 0
BBX 12 17 2 0
ATTRIBUTES 3a98
BITMAP
1980
1980
0000
c030
c030
c030
c030
c030
c030
c030
c030
c030
c030
c030
c030
fff0
7fe0
ENDCHAR
STARTCHAR Yacute
ENCODING 221
SWIDTH 685 0
DWIDTH 15 0
BBX 12 18 2 0
ATTRIBUTES 3a98
BITMAP
0300
0300
0400
0000
c030
c030
c030
c030
c030
c030
fff0
7ff0
0030
0030
0030
0030
fff0
ffe0
ENDCHAR
STARTCHAR THORN
ENCODING 222
SWIDTH 685 0
DWIDTH 15 0
BBX 12 14 2 0
ATTRIBUTES 3a98
BITMAP
c000
c000
c000
ffe0
fff0
0030
0030
0030
0030
fff0
ffe0
c000
c000
c000
ENDCHAR
STARTCHAR ssharp
ENCODING 223
SWIDTH 685 0
DWIDTH 15 0
BBX 12 16 2 -2
ATTRIBUTES 3a98
BITMAP
ffe0
fff0
0030
0030
0030
0030
fff0
fff0
c030
c030
c030
c030
c7f0
c7e0
c000
c000
ENDCHAR
STARTCHAR agrave
ENCODING 224
SWIDTH 685 0
DWIDTH 15 0
BBX 12 14 2 0
ATTRIBUTES 3a98
BITMAP
0e00
0e00
0200
0000
0000
0000
7ff0
fff0
c030
c030
c030
c030
fe30
7e30
ENDCHAR
STARTCHAR aacute
ENCODING 225
SWIDTH 685 0
DWIDTH 15 0
BBX 12 14 2 0
ATTRIBUTES 3a98
BITMAP
0600
0600
0400
0000
0000
0000
7ff0
fff0
c030
c030
c030
c030
fe30
7e30
ENDCHAR
STARTCHAR acircumflex
ENCODING 226
SWIDTH 685 0
DWIDTH 15 0
BBX 12 14 2 0
ATTRIBUTES 3a98
BITMAP
0200
0700
0f80
1980
0000
0000
7ff0
fff0
c030
c030
c030
c030
fe30
7e30
ENDCHAR
STARTCHAR atilde
ENCODING 227
SWIDTH 685 0
DWIDTH 15 0
BBX 12 14 2 0
ATTRIBUTES 3a98
BITMAP
00c0
1fc0
3f80
3000
0000
0000
7ff0
fff0
c030
c030
c030
c030
fe30
7e30
ENDCHAR
STARTCHAR adiaeresis
ENCODING 228
SWIDTH 685 0
DWIDTH 15 0
BBX 12 13 2 0
ATTRIBUTES 3a98
BITMAP
1980
1980
0000
0000
0000
7ff0
fff0
c030
c030
c030
c030
fe30
7e30
ENDCHAR
STARTCHAR aring
ENCODING 229
SWIDTH 685 0
DWIDTH 15 0
BBX 12 14 2 0
ATTRIBUTES 3a98
BITMAP
0f00
0900
0900
0f00
0000
0000
7ff0
fff0
c030
c030
c030
c030
fe30
7e30
ENDCHAR
STARTCHAR ae
ENCODING 230
SWIDTH 1142 0
DWIDTH 25 0
BBX 22 8 2 0
ATTRIBUTES 61a8
BITMAP
7ffff8
fffffc
c03038
c030f0
c033c0
c03000
fe3ffc
7e3ffc
ENDCHAR
STARTCHAR ccedilla
ENCODING 231
SWIDTH 685 0
DWIDTH 15 0
BBX 12 12 2 -4
ATTRIBUTES 3a98
BITMAP
7ff0
fff0
c000
c000
c000
c000
fff0
7ff0
0200
0200
0300
0300
ENDCHAR
STARTCHAR egrave
ENCODING 232
SWIDTH 685 0
DWIDTH 15 0
BBX 12 14 2 0
ATTRIBUTES 3a98
BITMAP
0c00
0e00
0600
0000
0000
0000
7fe0
fff0
c1e0
c3c0
cf00
c000
fff0
7ff0
ENDCHAR
STARTCHAR eacute
ENCODING 233
SWIDTH 685 0
DWIDTH 15 0
BBX 12 14 2 0
ATTRIBUTES 3a98
BITMAP
0300
0700
0400
0000
0000
0000
7fe0
fff0
c0e0
c3c0
c780
c000
fff0
7ff0
ENDCHAR
STARTCHAR ecircumflex
ENCODING 234
SWIDTH 685 0
DWIDTH 15 0
BBX 12 14 2 0
ATTRIBUTES 3a98
BITMAP
0200
0700
0f00
1980
0000
0000
7fe0
fff0
c0e0
c3c0
cf00
c000
fff0
7ff0
ENDCHAR
STARTCHAR ediaeresis
ENCODING 235
SWIDTH 685 0
DWIDTH 15 0
BBX 12 13 2 0
ATTRIBUTES 3a98
BITMAP
1980
1980
0000
0000
0000
7fe0
fff0
c0e0
c3c0
cf00
c000
fff0
7ff0
ENDCHAR
STARTCHAR igrave
ENCODING 236
SWIDTH 228 0
DWIDTH 5 0
BBX 3 14 2 0
ATTRIBUTES 1388
BITMAP
c0
c0
60
20
00
00
c0
c0
c0
c0
c0
c0
c0
c0
ENDCHAR
STARTCHAR iacute
ENCODING 237
SWIDTH 274 0
DWIDTH 6 0
BBX 3 14 2 0
ATTRIBUTES 1770
BITMAP
e0
e0
80
00
00
00
c0
c0
c0
c0
c0
c0
c0
c0
ENDCHAR
STARTCHAR icircumflex
ENCODING 238
SWIDTH 274 0
DWIDTH 6 0
BBX 6 14 0 0
ATTRIBUTES 1770
BITMAP
30
38
78
cc
00
00
30
30
30
30
30
30
30
30
ENDCHAR
STARTCHAR idiaeresis
ENCODING 239
SWIDTH 228 0
DWIDTH 5 0
BBX 5 14 0 0
ATTRIBUTES 1388
BITMAP
d8
d8
00
00
00
00
30
30
30
30
30
30
30
30
ENDCHAR
STARTCHAR eth
ENCODING 240
SWIDTH 685 0
DWIDTH 15 0
BBX 12 14 2 0
ATTRIBUTES 3a98
BITMAP
ffe0
fff0
0c30
0c30
0c30
0030
7ff0
fff0
c030
c030
c030
c030
fff0
7fe0
ENDCHAR
STARTCHAR ntilde
ENCODING 241
SWIDTH 685 0
DWIDTH 15 0
BBX 12 14 2 0
ATTRIBUTES 3a98
BITMAP
00c0
1fc0
3f80
3000
0000
0000
7fe0
fff0
c030
c030
c030
c030
c030
c030
ENDCHAR
STARTCHAR ograve
ENCODING 242
SWIDTH 685 0
DWIDTH 15 0
BBX 12 14 2 0
ATTRIBUTES 3a98
BITMAP
0e00
0e00
0200
0000
0000
0000
7fe0
fff0
c030
c030
c030
c030
fff0
7fe0
ENDCHAR
STARTCHAR oacute
ENCODING 243
SWIDTH 685 0
DWIDTH 15 0
BBX 12 14 2 0
ATTRIBUTES 3a98
BITMAP
0300
0700
0400
0000
0000
0000
7fe0
fff0
c030
c030
c030
c030
fff0
7fe0
ENDCHAR
STARTCHAR ocircumflex
ENCODING 244
SWIDTH 685 0
DWIDTH 15 0
BBX 12 14 2 0
ATTRIBUTES 3a98
BITMAP
0200
0700
0f00
1980
0000
0000
7fe0
fff0
c030
c030
c030
c030
fff0
7fe0
ENDCHAR
STARTCHAR otilde
ENCODING 245
SWIDTH 685 0
DWIDTH 15 0
BBX 12 14 2 0
ATTRIBUTES 3a98
BITMAP
00c0
1fc0
3f80
3000
0000
0000
7fe0
fff0
c030
c030
c030
c030
fff0
7fe0
ENDCHAR
STARTCHAR odiaeresis
ENCODING 246
SWIDTH 685 0
DWIDTH 15 0
BBX 12 13 2 0
ATTRIBUTES 3a98
BITMAP
1980
1980
0000
0000
0000
7fe0
fff0
c030
c030
c030
c030
fff0
7fe0
ENDCHAR
STARTCHAR division
ENCODING 247
SWIDTH 502 0
DWIDTH 11 0
BBX 8 10 2 2
ATTRIBUTES 2af8
BITMAP
18
18
00
00
ff
ff
00
00
18
18
ENDCHAR
STARTCHAR oslash
ENCODING 248
SWIDTH 685 0
DWIDTH 15 0
BBX 12 8 2 0
ATTRIBUTES 3a98
BITMAP
7fe0
fff0
c330
c630
ce30
cc30
fff0
7fe0
ENDCHAR
STARTCHAR ugrave
ENCODING 249
SWIDTH 685 0
DWIDTH 15 0
BBX 12 14 2 0
ATTRIBUTES 3a98
BITMAP
0e00
0e00
0200
0000
0000
0000
c030
c030
c030
c030
c030
c030
fff0
7fe0
ENDCHAR
STARTCHAR uacute
ENCODING 250
SWIDTH 685 0
DWIDTH 15 0
BBX 12 14 2 0
ATTRIBUTES 3a98
BITMAP
0300
0700
0400
0000
0000
0000
c030
c030
c030
c030
c030
c030
fff0
7fe0
ENDCHAR
STARTCHAR ucircumflex
ENCODING 251
SWIDTH 685 0
DWIDTH 15 0
BBX 12 14 2 0
ATTRIBUTES 3a98
BITMAP
0200
0700
0f00
1980
0000
0000
c030
c030
c030
c030
c030
c030
fff0
7fe0
ENDCHAR
STARTCHAR udiaeresis
ENCODING 252
SWIDTH 685 0
DWIDTH 15 0
BBX 12 13 2 0
ATTRIBUTES 3a98
BITMAP
1980
1980
0000
0000
0000
c030
c030
c030
c030
c030
c030
fff0
7fe0
ENDCHAR
STARTCHAR yacute
ENCODING 253
SWIDTH 685 0
DWIDTH 15 0
BBX 12 20 2 -6
ATTRIBUTES 3a98
BITMAP
0700
0700
0400
0000
0000
0000
c030
c030
c030
c030
c030
c030
fff0
7ff0
0030
0030
0030
0030
0030
0030
ENDCHAR
STARTCHAR thorn
ENCODING 254
SWIDTH 685 0
DWIDTH 15 0
BBX 12 14 2 0
ATTRIBUTES 3a98
BITMAP
c000
c000
c000
ffe0
fff0
0030
0030
0030
0030
fff0
ffe0
c000
c000
c000
ENDCHAR
STARTCHAR ydiaeresis
ENCODING 255
SWIDTH 685 0
DWIDTH 15 0
BBX 12 18 2 -6
ATTRIBUTES 3a98
BITMAP
1980
1980
0000
0000
c030
c030
c030
c030
c030
c030
fff0
7ff0
0030
0030
0030
0030
0030
0030
ENDCHAR
ENDFONT
